<mxfile host="app.diagrams.net" modified="2023-07-07T07:43:53.586Z" agent="Mozilla/5.0 (Windows NT 10.0; Win64; x64) AppleWebKit/537.36 (KHTML, like Gecko) Chrome/114.0.0.0 Safari/537.36 Edg/114.0.1823.67" etag="9ioTrk77J8gKzG5-M7Ub" version="21.6.1" type="github">
  <diagram name="第 1 页" id="YgfxHffcge3ufa5RNAq9">
    <mxGraphModel dx="2019" dy="1156" grid="1" gridSize="10" guides="1" tooltips="1" connect="1" arrows="1" fold="1" page="1" pageScale="1" pageWidth="827" pageHeight="1169" math="0" shadow="0">
      <root>
        <mxCell id="0" />
        <mxCell id="1" parent="0" />
        <mxCell id="TUTmCWfr5Yzr8r73PsZg-1" value="" style="rounded=0;whiteSpace=wrap;html=1;" vertex="1" parent="1">
          <mxGeometry x="40" y="80" width="820" height="240" as="geometry" />
        </mxCell>
        <mxCell id="TUTmCWfr5Yzr8r73PsZg-2" value="&lt;font style=&quot;font-size: 24px;&quot;&gt;time axis&lt;/font&gt;" style="text;html=1;strokeColor=none;fillColor=none;align=center;verticalAlign=middle;whiteSpace=wrap;rounded=0;" vertex="1" parent="1">
          <mxGeometry x="740" y="280" width="120" height="40" as="geometry" />
        </mxCell>
        <mxCell id="TUTmCWfr5Yzr8r73PsZg-3" value="" style="endArrow=classic;html=1;rounded=0;endSize=10;startSize=6;strokeWidth=3;" edge="1" parent="1">
          <mxGeometry width="50" height="50" relative="1" as="geometry">
            <mxPoint x="100" y="240" as="sourcePoint" />
            <mxPoint x="800" y="240" as="targetPoint" />
          </mxGeometry>
        </mxCell>
        <mxCell id="TUTmCWfr5Yzr8r73PsZg-4" value="" style="endArrow=none;html=1;rounded=0;strokeWidth=2;" edge="1" parent="1">
          <mxGeometry width="50" height="50" relative="1" as="geometry">
            <mxPoint x="135" y="260" as="sourcePoint" />
            <mxPoint x="135" y="220" as="targetPoint" />
          </mxGeometry>
        </mxCell>
        <mxCell id="TUTmCWfr5Yzr8r73PsZg-5" value="" style="endArrow=none;html=1;rounded=0;strokeWidth=2;" edge="1" parent="1">
          <mxGeometry width="50" height="50" relative="1" as="geometry">
            <mxPoint x="410" y="260" as="sourcePoint" />
            <mxPoint x="410" y="220" as="targetPoint" />
          </mxGeometry>
        </mxCell>
        <mxCell id="TUTmCWfr5Yzr8r73PsZg-6" value="" style="endArrow=none;html=1;rounded=0;strokeWidth=2;" edge="1" parent="1">
          <mxGeometry width="50" height="50" relative="1" as="geometry">
            <mxPoint x="520" y="260" as="sourcePoint" />
            <mxPoint x="520" y="220" as="targetPoint" />
          </mxGeometry>
        </mxCell>
        <mxCell id="TUTmCWfr5Yzr8r73PsZg-7" value="" style="rounded=0;whiteSpace=wrap;html=1;" vertex="1" parent="1">
          <mxGeometry x="290" y="90" width="560" height="90" as="geometry" />
        </mxCell>
        <mxCell id="TUTmCWfr5Yzr8r73PsZg-8" value="&lt;font style=&quot;font-size: 24px;&quot;&gt;checkpointing&lt;/font&gt;" style="text;html=1;strokeColor=none;fillColor=none;align=center;verticalAlign=middle;whiteSpace=wrap;rounded=0;" vertex="1" parent="1">
          <mxGeometry x="190" y="200" width="160" height="40" as="geometry" />
        </mxCell>
        <mxCell id="TUTmCWfr5Yzr8r73PsZg-9" value="&lt;font style=&quot;font-size: 24px;&quot;&gt;Common Checkpoint Approach&lt;/font&gt;" style="text;html=1;strokeColor=none;fillColor=none;align=left;verticalAlign=middle;whiteSpace=wrap;rounded=0;" vertex="1" parent="1">
          <mxGeometry x="50" y="80" width="240" height="70" as="geometry" />
        </mxCell>
        <mxCell id="TUTmCWfr5Yzr8r73PsZg-10" value="&lt;font style=&quot;font-size: 24px;&quot;&gt;interval&lt;/font&gt;" style="text;html=1;strokeColor=none;fillColor=none;align=center;verticalAlign=middle;whiteSpace=wrap;rounded=0;" vertex="1" parent="1">
          <mxGeometry x="425" y="200" width="80" height="40" as="geometry" />
        </mxCell>
        <mxCell id="TUTmCWfr5Yzr8r73PsZg-11" value="&lt;font style=&quot;font-size: 24px;&quot;&gt;checkpointing&lt;/font&gt;" style="text;html=1;strokeColor=none;fillColor=none;align=center;verticalAlign=middle;whiteSpace=wrap;rounded=0;" vertex="1" parent="1">
          <mxGeometry x="570" y="200" width="160" height="40" as="geometry" />
        </mxCell>
        <mxCell id="TUTmCWfr5Yzr8r73PsZg-12" value="" style="endArrow=classic;html=1;rounded=0;exitX=0;exitY=0.5;exitDx=0;exitDy=0;strokeWidth=2;endSize=8;startSize=8;" edge="1" parent="1">
          <mxGeometry width="50" height="50" relative="1" as="geometry">
            <mxPoint x="190" y="220" as="sourcePoint" />
            <mxPoint x="140" y="220" as="targetPoint" />
          </mxGeometry>
        </mxCell>
        <mxCell id="TUTmCWfr5Yzr8r73PsZg-13" value="" style="endArrow=classic;html=1;rounded=0;exitX=1;exitY=0.5;exitDx=0;exitDy=0;strokeWidth=2;endSize=8;startSize=8;" edge="1" parent="1">
          <mxGeometry width="50" height="50" relative="1" as="geometry">
            <mxPoint x="350" y="220" as="sourcePoint" />
            <mxPoint x="400" y="220" as="targetPoint" />
          </mxGeometry>
        </mxCell>
        <mxCell id="TUTmCWfr5Yzr8r73PsZg-14" value="" style="endArrow=classic;html=1;rounded=0;exitX=0;exitY=0.5;exitDx=0;exitDy=0;strokeWidth=2;endSize=8;startSize=8;" edge="1" parent="1">
          <mxGeometry width="50" height="50" relative="1" as="geometry">
            <mxPoint x="570" y="220" as="sourcePoint" />
            <mxPoint x="525" y="220" as="targetPoint" />
          </mxGeometry>
        </mxCell>
        <mxCell id="TUTmCWfr5Yzr8r73PsZg-15" value="&lt;font style=&quot;font-size: 18px;&quot;&gt;&amp;nbsp; &amp;nbsp; &amp;nbsp;interval :&amp;nbsp; time break between checkpointing&lt;/font&gt;" style="text;html=1;strokeColor=none;fillColor=none;align=left;verticalAlign=middle;whiteSpace=wrap;rounded=0;" vertex="1" parent="1">
          <mxGeometry x="300" y="135" width="400" height="40" as="geometry" />
        </mxCell>
        <mxCell id="TUTmCWfr5Yzr8r73PsZg-16" value="&lt;font style=&quot;font-size: 18px;&quot;&gt;checkpointing :&amp;nbsp; copy all dirty memory,&lt;br&gt;&lt;span style=&quot;white-space: pre;&quot;&gt;&#x9;&lt;/span&gt;&lt;span style=&quot;white-space: pre;&quot;&gt;&#x9;&lt;/span&gt;&lt;span style=&quot;white-space: pre;&quot;&gt;&#x9;&lt;/span&gt;&amp;nbsp; sync memory and CPU states&lt;/font&gt;" style="text;html=1;strokeColor=none;fillColor=none;align=left;verticalAlign=middle;whiteSpace=wrap;rounded=0;" vertex="1" parent="1">
          <mxGeometry x="300" y="95" width="400" height="40" as="geometry" />
        </mxCell>
        <mxCell id="TUTmCWfr5Yzr8r73PsZg-17" value="" style="endArrow=none;html=1;rounded=0;strokeWidth=6;strokeColor=#FF0000;" edge="1" parent="1">
          <mxGeometry width="50" height="50" relative="1" as="geometry">
            <mxPoint x="150" y="270" as="sourcePoint" />
            <mxPoint x="150" y="210" as="targetPoint" />
            <Array as="points">
              <mxPoint x="140" y="270" />
              <mxPoint x="140" y="210" />
            </Array>
          </mxGeometry>
        </mxCell>
        <mxCell id="TUTmCWfr5Yzr8r73PsZg-18" value="" style="endArrow=none;html=1;rounded=0;strokeWidth=6;strokeColor=#FF0000;" edge="1" parent="1">
          <mxGeometry width="50" height="50" relative="1" as="geometry">
            <mxPoint x="535" y="270" as="sourcePoint" />
            <mxPoint x="535" y="210" as="targetPoint" />
            <Array as="points">
              <mxPoint x="525" y="270" />
              <mxPoint x="525" y="210" />
            </Array>
          </mxGeometry>
        </mxCell>
        <mxCell id="TUTmCWfr5Yzr8r73PsZg-19" value="" style="endArrow=none;html=1;rounded=0;strokeWidth=6;strokeColor=#FF0000;" edge="1" parent="1">
          <mxGeometry width="50" height="50" relative="1" as="geometry">
            <mxPoint x="395" y="270" as="sourcePoint" />
            <mxPoint x="395" y="210" as="targetPoint" />
            <Array as="points">
              <mxPoint x="405" y="270" />
              <mxPoint x="405" y="210" />
            </Array>
          </mxGeometry>
        </mxCell>
        <mxCell id="TUTmCWfr5Yzr8r73PsZg-20" value="" style="endArrow=none;html=1;rounded=0;strokeWidth=3;strokeColor=#FF0000;" edge="1" parent="1">
          <mxGeometry width="50" height="50" relative="1" as="geometry">
            <mxPoint x="710" y="125" as="sourcePoint" />
            <mxPoint x="710" y="105" as="targetPoint" />
            <Array as="points">
              <mxPoint x="700" y="125" />
              <mxPoint x="700" y="105" />
            </Array>
          </mxGeometry>
        </mxCell>
        <mxCell id="TUTmCWfr5Yzr8r73PsZg-21" value="" style="endArrow=none;html=1;rounded=0;strokeWidth=3;strokeColor=#FF0000;" edge="1" parent="1">
          <mxGeometry width="50" height="50" relative="1" as="geometry">
            <mxPoint x="715" y="125" as="sourcePoint" />
            <mxPoint x="715" y="105" as="targetPoint" />
            <Array as="points">
              <mxPoint x="725" y="125" />
              <mxPoint x="725" y="105" />
            </Array>
          </mxGeometry>
        </mxCell>
        <mxCell id="TUTmCWfr5Yzr8r73PsZg-22" value="&lt;font style=&quot;font-size: 18px;&quot;&gt;:&amp;nbsp; VM paused&lt;/font&gt;" style="text;html=1;strokeColor=none;fillColor=none;align=left;verticalAlign=middle;whiteSpace=wrap;rounded=0;" vertex="1" parent="1">
          <mxGeometry x="730" y="95" width="120" height="40" as="geometry" />
        </mxCell>
        <mxCell id="TUTmCWfr5Yzr8r73PsZg-23" value="" style="endArrow=none;html=1;rounded=0;strokeWidth=3;strokeColor=#7EA6E0;" edge="1" parent="1">
          <mxGeometry width="50" height="50" relative="1" as="geometry">
            <mxPoint x="710" y="165" as="sourcePoint" />
            <mxPoint x="710" y="145" as="targetPoint" />
            <Array as="points">
              <mxPoint x="700" y="165" />
              <mxPoint x="700" y="145" />
            </Array>
          </mxGeometry>
        </mxCell>
        <mxCell id="TUTmCWfr5Yzr8r73PsZg-24" value="" style="endArrow=none;html=1;rounded=0;strokeWidth=3;strokeColor=#7EA6E0;" edge="1" parent="1">
          <mxGeometry width="50" height="50" relative="1" as="geometry">
            <mxPoint x="715" y="165" as="sourcePoint" />
            <mxPoint x="715" y="145" as="targetPoint" />
            <Array as="points">
              <mxPoint x="725" y="165" />
              <mxPoint x="725" y="145" />
            </Array>
          </mxGeometry>
        </mxCell>
        <mxCell id="TUTmCWfr5Yzr8r73PsZg-25" value="&lt;font style=&quot;font-size: 18px;&quot;&gt;:&amp;nbsp; VM running&lt;/font&gt;" style="text;html=1;strokeColor=none;fillColor=none;align=left;verticalAlign=middle;whiteSpace=wrap;rounded=0;" vertex="1" parent="1">
          <mxGeometry x="730" y="135" width="120" height="40" as="geometry" />
        </mxCell>
        <mxCell id="TUTmCWfr5Yzr8r73PsZg-26" value="" style="endArrow=none;html=1;rounded=0;strokeWidth=6;strokeColor=#7EA6E0;" edge="1" parent="1">
          <mxGeometry width="50" height="50" relative="1" as="geometry">
            <mxPoint x="425" y="270" as="sourcePoint" />
            <mxPoint x="425" y="210" as="targetPoint" />
            <Array as="points">
              <mxPoint x="415" y="270" />
              <mxPoint x="415" y="210" />
            </Array>
          </mxGeometry>
        </mxCell>
        <mxCell id="TUTmCWfr5Yzr8r73PsZg-27" value="" style="endArrow=none;html=1;rounded=0;strokeWidth=6;strokeColor=#7EA6E0;" edge="1" parent="1">
          <mxGeometry width="50" height="50" relative="1" as="geometry">
            <mxPoint x="505" y="270" as="sourcePoint" />
            <mxPoint x="505" y="210" as="targetPoint" />
            <Array as="points">
              <mxPoint x="515" y="270" />
              <mxPoint x="515" y="210" />
            </Array>
          </mxGeometry>
        </mxCell>
        <mxCell id="TUTmCWfr5Yzr8r73PsZg-28" value="" style="endArrow=classic;html=1;rounded=0;strokeWidth=2;endSize=8;" edge="1" parent="1">
          <mxGeometry width="50" height="50" relative="1" as="geometry">
            <mxPoint x="730" y="219.5" as="sourcePoint" />
            <mxPoint x="770" y="219.5" as="targetPoint" />
          </mxGeometry>
        </mxCell>
        <mxCell id="TUTmCWfr5Yzr8r73PsZg-30" value="" style="endArrow=none;html=1;rounded=0;strokeWidth=6;strokeColor=#FF0000;" edge="1" parent="1">
          <mxGeometry width="50" height="50" relative="1" as="geometry">
            <mxPoint x="760" y="270" as="sourcePoint" />
            <mxPoint x="760" y="210" as="targetPoint" />
            <Array as="points">
              <mxPoint x="770" y="270" />
              <mxPoint x="770" y="210" />
            </Array>
          </mxGeometry>
        </mxCell>
        <mxCell id="TUTmCWfr5Yzr8r73PsZg-31" value="" style="endArrow=none;html=1;rounded=0;strokeWidth=2;" edge="1" parent="1">
          <mxGeometry width="50" height="50" relative="1" as="geometry">
            <mxPoint x="775" y="260" as="sourcePoint" />
            <mxPoint x="775" y="220" as="targetPoint" />
          </mxGeometry>
        </mxCell>
      </root>
    </mxGraphModel>
  </diagram>
</mxfile>
